<svg xmlns="http://www.w3.org/2000/svg" height="56.693" viewBox="-1163 1657.697 56.693 56.693" width="56.693" xmlns:v="https://vecta.io/nano"><path d="M-1134.66 1662.916c-13.601 0-24.63 11.027-24.63 24.63 0 10.882 7.057 20.114 16.843 23.371 1.231.228 1.683-.534 1.683-1.185l-.033-4.586c-6.852 1.49-8.298-2.906-8.298-2.906-1.12-2.847-2.735-3.604-2.735-3.604-2.235-1.529.168-1.497.168-1.497 2.473.174 3.775 2.539 3.775 2.539 2.197 3.765 5.762 2.677 7.168 2.047.221-1.592.859-2.679 1.564-3.294-5.471-.623-11.222-2.735-11.222-12.172 0-2.689.962-4.886 2.538-6.611-.256-.621-1.099-3.126.239-6.518 0 0 2.068-.662 6.775 2.525 1.965-.546 4.072-.82 6.165-.829 2.093.009 4.202.283 6.17.829 4.701-3.187 6.766-2.525 6.766-2.525 1.341 3.393.497 5.898.242 6.518 1.579 1.725 2.535 3.922 2.535 6.611 0 9.46-5.762 11.543-11.246 12.153.883.764 1.67 2.263 1.67 4.561l-.028 6.759c0 .656.443 1.424 1.691 1.182 9.781-3.261 16.83-12.49 16.83-23.368 0-13.603-11.027-24.63-24.63-24.63z" fill-rule="evenodd"/><path d="M-1149.961 1698.279c-.054.123-.247.159-.422.075s-.279-.247-.221-.37.246-.161.424-.077.281.249.219.372h0zm.998 1.113c-.117.109-.347.058-.503-.114-.161-.172-.191-.402-.072-.512s.344-.058.505.114.193.401.07.512h0zm.971 1.419c-.151.105-.398.007-.551-.212s-.151-.482.004-.587.396-.01.551.207c.151.223.151.486-.004.593h0zm1.33 1.37c-.135.149-.423.109-.633-.094-.216-.198-.275-.48-.14-.629s.426-.107.638.094.279.482.135.629h0zm1.836.796c-.06.193-.336.28-.615.198s-.461-.31-.405-.505.336-.285.617-.198.461.308.403.505h0zm2.015.147c.007.203-.23.372-.523.375s-.533-.158-.536-.358.231-.372.526-.377.533.158.533.359h0zm1.876-.319c.035.198-.169.401-.459.456s-.55-.07-.587-.266c-.035-.203.172-.407.457-.459.291-.051.552.068.589.27h0zm0 0"/></svg>