<svg xmlns="http://www.w3.org/2000/svg" height="67" width="67" xmlns:v="https://vecta.io/nano"><path d="M42.271 26.578v-.006l1.508-.002c.646-.016 1.172-.57 1.172-1.217v-2.89a1.23 1.23 0 0 0-1.236-1.241c-.961 0-1.922-.001-2.883 0-.688.001-1.236.552-1.236 1.243l.003 2.865a1.4 1.4 0 0 0 .073.426c.173.508.639.82 1.209.823l1.39-.001zM33 27.817c-3.384-.002-6.135 2.721-6.182 6.089-.049 3.46 2.72 6.201 6.04 6.272 3.454.074 6.248-2.686 6.321-6.043A6.19 6.19 0 0 0 33 27.817zm-11.954 3.299v.082 13.545c0 .649.562 1.208 1.212 1.208h21.479c.656 0 1.215-.557 1.215-1.212V31.211v-.094H42.04c.411 1.314.537 2.651.376 4.014a9.32 9.32 0 0 1-1.316 3.803 9.45 9.45 0 0 1-2.779 2.918c-2.944 2.006-6.821 2.182-9.946.428-1.579-.885-2.819-2.12-3.685-3.713-1.289-2.373-1.495-4.865-.739-7.451h-2.905zm24.159 18.139l.475-.083c1.246-.265 2.264-1.304 2.508-2.557l.067-.409V21.794l-.065-.401a3.3 3.3 0 0 0-2.78-2.618c-.058-.007-.113-.02-.17-.03H20.761l-.441.08a3.29 3.29 0 0 0-2.545 2.766l-.029.171V46.24l.085.465c.299 1.322 1.427 2.347 2.77 2.52l.195.03h24.409zM33 64C16.432 64 3 50.568 3 34S16.432 4 33 4s30 13.431 30 30-13.432 30-30 30z" fill-rule="evenodd" fill="#010101"/></svg>