<svg xmlns="http://www.w3.org/2000/svg" height="56.693" width="56.693" xmlns:v="https://vecta.io/nano"><path d="M28.347 5.155A24.63 24.63 0 0 0 3.722 29.78c0 13.602 11.025 24.625 24.625 24.625S52.97 43.382 52.97 29.78 41.944 5.155 28.347 5.155zm13.715 36.586c0 1.096-.91 1.982-2.031 1.982H16.613c-1.123 0-2.031-.887-2.031-1.982V18.052c0-1.094.908-1.982 2.031-1.982H40.03c1.121 0 2.031.889 2.031 1.982v23.689zm-8.963-15.3c-2.201 0-3.188 1.209-3.74 2.061v.041h-.027c.01-.012.02-.027.027-.041v-1.768h-4.15c.055 1.17 0 12.484 0 12.484h4.15v-6.973c0-.375.027-.744.137-1.012.301-.744.984-1.52 2.129-1.52 1.504 0 2.104 1.146 2.104 2.824v6.68h4.15V32.06c-.001-3.836-2.05-5.619-4.78-5.619zm-12.235-5.729c-1.419 0-2.349.934-2.349 2.159 0 1.197.9 2.158 2.294 2.158h.027c1.447 0 2.348-.961 2.348-2.158-.027-1.225-.9-2.159-2.32-2.159zm-2.102 6.022h4.151v12.484h-4.151z"/></svg>