<svg xmlns="http://www.w3.org/2000/svg" height="56.693" width="56.693" xmlns:v="https://vecta.io/nano"><path d="M28.348 5.157c-13.6 0-24.625 11.027-24.625 24.625s11.025 24.623 24.625 24.623 24.623-11.023 24.623-24.623A24.63 24.63 0 0 0 28.348 5.157zm12.404 19.66c.013.266.018.533.018.803 0 8.201-6.242 17.656-17.656 17.656a17.57 17.57 0 0 1-9.513-2.787 12.69 12.69 0 0 0 1.48.086 12.45 12.45 0 0 0 7.707-2.656c-2.715-.051-5.006-1.846-5.796-4.311a6.06 6.06 0 0 0 1.167.111c.566 0 1.114-.074 1.635-.217a6.21 6.21 0 0 1-4.979-6.084l.001-.08c.836.465 1.793.744 2.811.777-1.666-1.115-2.761-3.012-2.761-5.166a6.18 6.18 0 0 1 .84-3.12c3.061 3.754 7.634 6.225 12.792 6.483a6.21 6.21 0 0 1-.161-1.414c0-3.426 2.778-6.205 6.206-6.205a6.2 6.2 0 0 1 4.529 1.959c1.414-.277 2.742-.795 3.941-1.506-.465 1.45-1.448 2.666-2.73 3.433 1.257-.15 2.453-.484 3.565-.977-.83 1.247-1.883 2.34-3.096 3.215z"/></svg>